<?xml version="1.0" encoding="utf-8"?>
<svg xmlns="http://www.w3.org/2000/svg" style="margin: auto; background: rgb(148, 9, 86); display: block; shape-rendering: auto;" width="253" height="157" preserveAspectRatio="xMidYMid">
<style type="text/css">
  text {
    text-anchor: middle; font-size: 34px; opacity: 0;
  }
</style>
<g style="transform-origin: 126.5px 78.5px; transform: scale(0.425);">
<g transform="translate(126.5,78.5)">
  <g transform="translate(0,0)"><g class="path" style="transform: matrix(1, 0, 0, 1, 0, 14.925); opacity: 0.05; transform-origin: -204.96px -5.87475px; animation: 1s linear 0s 1 normal forwards running float-btt-in-41cf13b9-0340-45ca-930a-0d5963a36485;"><path d="M19.28 0.72L19.28 0.72L19.28 0.72Q14.24 0.72 11.92-2.64L11.92-2.64L5.20 2.16L3.68 2.16L12.64-50.24L12.64-50.24Q10.24-50 8.64-48L8.64-48L7.44-48.96L7.44-48.96Q9.84-51.84 13.48-51.84L13.48-51.84L13.48-51.84Q17.12-51.84 19.12-50L19.12-50L19.12-50Q21.12-48.16 21.12-44.80L21.12-44.80L21.12-44.80Q21.12-44.16 20.96-42.72L20.96-42.72L20.96-42.72Q19.68-35.60 17.84-25.60L17.84-25.60L17.84-25.60Q21.20-31.04 26.56-31.04L26.56-31.04L26.56-31.04Q31.92-31.04 34.80-27.96L34.80-27.96L34.80-27.96Q37.68-24.88 37.68-19.52L37.68-19.52L37.68-19.52Q37.68-10.08 32.56-4.68L32.56-4.68L32.56-4.68Q27.44 0.72 19.28 0.72zM18.72-1.44L18.72-1.44L18.72-1.44Q23.12-1.44 25.88-7.56L25.88-7.56L25.88-7.56Q28.64-13.68 28.64-22.80L28.64-22.80L28.64-22.80Q28.64-26.48 27.88-27.84L27.88-27.84L27.88-27.84Q27.12-29.20 25.12-29.20L25.12-29.20L25.12-29.20Q23.12-29.20 21-26.80L21-26.80L21-26.80Q18.88-24.40 17.92-22.28L17.92-22.28L17.92-22.28Q16.96-20.16 16.96-19.84L16.96-19.84L16.80-19.84L16.80-19.84Q14.80-9.36 13.84-4L13.84-4L13.84-4Q15.20-1.44 18.72-1.44" fill="#ff5b68" stroke="none" stroke-width="none" transform="translate(-225.64002132415771,18.965254225049698)" style="fill: rgb(255, 91, 104);"></path></g><g class="path" style="transform: matrix(1, 0, 0, 1, 0, 14.925); opacity: 0.05; transform-origin: -155.88px 3.76525px; animation: 1s linear 0.0471429s 1 normal forwards running float-btt-in-41cf13b9-0340-45ca-930a-0d5963a36485;"><path d="M72.08-0.88L72.08-0.88L72.08-0.88Q74-0.88 76.08-3.12L76.08-3.12L77.28-2.16L77.28-2.16Q76.72-1.04 74.80-0.16L74.80-0.16L74.80-0.16Q72.88 0.72 70.56 0.72L70.56 0.72L70.56 0.72Q63.28 0.72 63.28-5.84L63.28-5.84L63.28-5.84Q63.28-8.64 64.72-15.84L64.72-15.84L64.72-15.84Q66.16-23.04 66.16-25.28L66.16-25.28L66.16-25.28Q66.16-28.72 62.88-28.72L62.88-28.72L62.88-28.72Q57.92-28.72 54.56-16L54.56-16L51.68 0L42.08 0L47.36-29.52L47.36-29.52Q44.96-29.28 43.36-27.28L43.36-27.28L42.16-28.24L42.16-28.24Q44.56-31.12 48.20-31.12L48.20-31.12L48.20-31.12Q51.84-31.12 53.84-29.28L53.84-29.28L53.84-29.28Q55.84-27.44 55.84-24.08L55.84-24.08L55.84-23.84L55.84-23.84Q58.96-31.12 65.28-31.12L65.28-31.12L65.28-31.12Q69.76-31.12 72.36-28.68L72.36-28.68L72.36-28.68Q74.96-26.24 75.20-21.84L75.20-21.84L75.20-21.84Q76.72-26.24 79.04-28.68L79.04-28.68L79.04-28.68Q81.36-31.12 85.76-31.12L85.76-31.12L85.76-31.12Q90.16-31.12 92.80-28.44L92.80-28.44L92.80-28.44Q95.44-25.76 95.44-21.04L95.44-21.04L95.44-21.04Q95.44-18.56 93.92-11.48L93.92-11.48L93.92-11.48Q92.40-4.40 92.24-0.88L92.24-0.88L92.24-0.88Q94.16-0.88 96.24-3.12L96.24-3.12L97.44-2.16L97.44-2.16Q96.88-1.04 94.96-0.16L94.96-0.16L94.96-0.16Q93.04 0.72 90.72 0.72L90.72 0.72L90.72 0.72Q83.44 0.72 83.44-5.84L83.44-5.84L83.44-5.84Q83.44-8.64 84.88-15.84L84.88-15.84L84.88-15.84Q86.32-23.04 86.32-25.28L86.32-25.28L86.32-25.28Q86.32-28.72 83.04-28.72L83.04-28.72L83.04-28.72Q77.28-28.72 73.76-11.60L73.76-11.60L73.76-11.60Q72.24-4.32 72.08-0.88" fill="#ff5b68" stroke="none" stroke-width="none" transform="translate(-225.64002132415771,18.965254225049698)" style="fill: rgb(255, 91, 104);"></path></g><g class="path" style="transform: matrix(1, 0, 0, 1, 0, 14.925); opacity: 0.05; transform-origin: -116.32px 3.76525px; animation: 1s linear 0.0942857s 1 normal forwards running float-btt-in-41cf13b9-0340-45ca-930a-0d5963a36485;"><path d="M116-2.16L116-2.16Q113.60 0.72 110 0.72L110 0.72L110 0.72Q106.40 0.72 104.36-1.12L104.36-1.12L104.36-1.12Q102.32-2.96 102.32-5.92L102.32-5.92L102.32-5.92Q102.32-6.96 103.60-14.64L103.60-14.64L106.24-28.96L102.88-28.96L103.04-30.40L106.48-30.40L106.48-30.40Q112.40-30.40 115.20-30.88L115.20-30.88L116.32-31.12L110.80-0.88L110.80-0.88Q113.20-1.12 114.80-3.12L114.80-3.12L116-2.16" fill="#ff5b68" stroke="none" stroke-width="none" transform="translate(-225.64002132415771,18.965254225049698)" style="fill: rgb(255, 91, 104);"></path></g><g class="path" style="transform: matrix(1, 0, 0, 1, 0, 14.925); opacity: 0.05; transform-origin: -112.56px -23.9547px; animation: 1s linear 0.141429s 1 normal forwards running float-btt-in-41cf13b9-0340-45ca-930a-0d5963a36485;"><path d="M108.96-38.80L108.96-38.80L108.96-38.80Q107.28-40.48 107.28-42.88L107.28-42.88L107.28-42.88Q107.28-45.28 108.96-47L108.96-47L108.96-47Q110.64-48.72 113.04-48.72L113.04-48.72L113.04-48.72Q115.44-48.72 117.16-47L117.16-47L117.16-47Q118.88-45.28 118.88-42.88L118.88-42.88L118.88-42.88Q118.88-40.48 117.16-38.80L117.16-38.80L117.16-38.80Q115.44-37.12 113.04-37.12L113.04-37.12L113.04-37.12Q110.64-37.12 108.96-38.80" fill="#ff5b68" stroke="none" stroke-width="none" transform="translate(-225.64002132415771,18.965254225049698)" style="fill: rgb(255, 91, 104);"></path></g><g class="path" style="transform: matrix(1, 0, 0, 1, 0, 14.925); opacity: 0.05; transform-origin: -73.56px 3.76525px; animation: 1s linear 0.188571s 1 normal forwards running float-btt-in-41cf13b9-0340-45ca-930a-0d5963a36485;"><path d="M156.88-16.72L156.88-16.72L156.88-16.72Q155.20-18.40 155.20-20.80L155.20-20.80L155.20-20.80Q155.20-23.20 156.88-24.92L156.88-24.92L156.88-24.92Q158.56-26.64 160.96-26.64L160.96-26.64L160.96-26.64Q161.68-26.64 162.80-26.32L162.80-26.32L162.80-26.32Q161.28-29.12 157.12-29.12L157.12-29.12L157.12-29.12Q152.96-29.12 149.76-23.84L149.76-23.84L149.76-23.84Q146.56-18.56 146.56-8.16L146.56-8.16L146.56-8.16Q146.56-4.56 148.20-2.84L148.20-2.84L148.20-2.84Q149.84-1.12 152.32-1.12L152.32-1.12L152.32-1.12Q154.80-1.12 156.84-2.08L156.84-2.08L156.84-2.08Q158.88-3.04 160.08-4.36L160.08-4.36L160.08-4.36Q161.28-5.68 162.16-7.12L162.16-7.12L162.16-7.12Q163.76-9.76 163.76-10.48L163.76-10.48L165.20-9.84L165.20-9.84Q164.96-8.56 163.76-6.44L163.76-6.44L163.76-6.44Q162.56-4.32 161.12-2.96L161.12-2.96L161.12-2.96Q159.68-1.60 156.88-0.44L156.88-0.44L156.88-0.44Q154.08 0.72 150.64 0.72L150.64 0.72L150.64 0.72Q144.16 0.72 140.84-2.36L140.84-2.36L140.84-2.36Q137.52-5.44 137.52-10.80L137.52-10.80L137.52-10.80Q137.52-20.32 142.28-25.72L142.28-25.72L142.28-25.72Q147.04-31.12 155.20-31.12L155.20-31.12L155.20-31.12Q160.72-31.12 163.68-28.32L163.68-28.32L163.68-28.32Q166.64-25.52 166.64-20.96L166.64-20.96L166.64-20.96Q166.64-18.08 164.92-16.56L164.92-16.56L164.92-16.56Q163.20-15.04 160.88-15.04L160.88-15.04L160.88-15.04Q158.56-15.04 156.88-16.72" fill="#ff5b68" stroke="none" stroke-width="none" transform="translate(-225.64002132415771,18.965254225049698)" style="fill: rgb(255, 91, 104);"></path></g><g class="path" style="transform: matrix(1, 0, 0, 1, 0, 14.925); opacity: 0.05; transform-origin: -38.36px 3.76525px; animation: 1s linear 0.235714s 1 normal forwards running float-btt-in-41cf13b9-0340-45ca-930a-0d5963a36485;"><path d="M198.24 0.72L198.24 0.72L198.24 0.72Q191.20 0.72 190.56-5.44L190.56-5.44L190.56-5.44Q187.04 0.72 181.68 0.72L181.68 0.72L181.68 0.72Q176.32 0.72 173.16-2.52L173.16-2.52L173.16-2.52Q170-5.76 170-11.60L170-11.60L170-11.60Q170-20.72 174.48-25.92L174.48-25.92L174.48-25.92Q178.96-31.12 186.08-31.12L186.08-31.12L186.08-31.12Q191.92-31.12 193.84-25.60L193.84-25.60L193.84-25.60Q194.24-28 194.72-30.40L194.72-30.40L194.72-30.40Q200.64-30.40 203.52-30.88L203.52-30.88L204.56-31.12L199.04-0.88L199.04-0.88Q201.44-1.12 203.04-3.12L203.04-3.12L204.24-2.16L204.24-2.16Q201.84 0.72 198.24 0.72zM179.04-7.52L179.04-7.52Q179.04-3.92 179.96-2.52L179.96-2.52L179.96-2.52Q180.88-1.12 182.80-1.12L182.80-1.12L182.80-1.12Q184.72-1.12 186.72-3.20L186.72-3.20L186.72-3.20Q189.36-5.92 190.96-10.08L190.96-10.08L190.96-10.08Q191.20-11.12 191.88-15.08L191.88-15.08L191.88-15.08Q192.56-19.04 193.04-21.60L193.04-21.60L193.04-21.60Q192.80-24.64 191.36-26.88L191.36-26.88L191.36-26.88Q189.92-29.12 187.76-29.12L187.76-29.12L187.76-29.12Q183.84-29.12 181.44-22.12L181.44-22.12L181.44-22.12Q179.04-15.12 179.04-7.52L179.04-7.52" fill="#ff5b68" stroke="none" stroke-width="none" transform="translate(-225.64002132415771,18.965254225049698)" style="fill: rgb(255, 91, 104);"></path></g><g class="path" style="transform: matrix(1, 0, 0, 1, 0, 14.925); opacity: 0.05; transform-origin: -5.36001px -6.59475px; animation: 1s linear 0.282857s 1 normal forwards running float-btt-in-41cf13b9-0340-45ca-930a-0d5963a36485;"><path d="M223.36-2.88L223.36-2.88L223.36-2.88Q222.32-1.52 220.52-0.40L220.52-0.40L220.52-0.40Q218.72 0.72 215.84 0.72L215.84 0.72L215.84 0.72Q212.96 0.72 210.96-1.12L210.96-1.12L210.96-1.12Q208.96-2.96 208.96-6.32L208.96-6.32L208.96-6.32Q208.96-6.96 209.12-8.40L209.12-8.40L214.32-37.20L214.32-37.20Q215.76-45.12 218.28-48.48L218.28-48.48L218.28-48.48Q220.80-51.84 224.96-51.84L224.96-51.84L224.96-51.84Q227.84-51.84 229.72-49.68L229.72-49.68L229.72-49.68Q231.60-47.52 231.60-43.12L231.60-43.12L231.60-43.12Q231.60-38.72 228.20-30.56L228.20-30.56L228.20-30.56Q224.80-22.40 224.80-18.64L224.80-18.64L223.36-18.64L223.36-18.64Q223.36-22.88 226.72-30.76L226.72-30.76L226.72-30.76Q230.08-38.64 230.08-43.36L230.08-43.36L230.08-43.36Q230.08-46.24 228.76-48.32L228.76-48.32L228.76-48.32Q227.44-50.40 225.52-50.40L225.52-50.40L225.52-50.40Q225.44-48.32 222.76-31.72L222.76-31.72L222.76-31.72Q220.08-15.12 217.44-0.88L217.44-0.88L217.44-0.88Q219.68-0.88 221.60-3.20L221.60-3.20L221.60-3.20Q223.52-5.52 224.32-7.84L224.32-7.84L225.20-10.24L226.64-9.60L226.64-9.60Q226.40-8.48 225.40-6.36L225.40-6.36L225.40-6.36Q224.40-4.24 223.36-2.88" fill="#ff5b68" stroke="none" stroke-width="none" transform="translate(-225.64002132415771,18.965254225049698)" style="fill: rgb(255, 91, 104);"></path></g><g class="path" style="transform: matrix(1, 0, 0, 1, 0, 14.925); opacity: 0.05; transform-origin: 19.8px 3.76525px; animation: 1s linear 0.33s 1 normal forwards running float-btt-in-41cf13b9-0340-45ca-930a-0d5963a36485;"><path d="M250.24-16.72L250.24-16.72L250.24-16.72Q248.56-18.40 248.56-20.80L248.56-20.80L248.56-20.80Q248.56-23.20 250.24-24.92L250.24-24.92L250.24-24.92Q251.92-26.64 254.32-26.64L254.32-26.64L254.32-26.64Q255.04-26.64 256.16-26.32L256.16-26.32L256.16-26.32Q254.64-29.12 250.48-29.12L250.48-29.12L250.48-29.12Q246.32-29.12 243.12-23.84L243.12-23.84L243.12-23.84Q239.92-18.56 239.92-8.16L239.92-8.16L239.92-8.16Q239.92-4.56 241.56-2.84L241.56-2.84L241.56-2.84Q243.20-1.12 245.68-1.12L245.68-1.12L245.68-1.12Q248.16-1.12 250.20-2.08L250.20-2.08L250.20-2.08Q252.24-3.04 253.44-4.36L253.44-4.36L253.44-4.36Q254.64-5.68 255.52-7.12L255.52-7.12L255.52-7.12Q257.12-9.76 257.12-10.48L257.12-10.48L258.56-9.84L258.56-9.84Q258.32-8.56 257.12-6.44L257.12-6.44L257.12-6.44Q255.92-4.32 254.48-2.96L254.48-2.96L254.48-2.96Q253.04-1.60 250.24-0.44L250.24-0.44L250.24-0.44Q247.44 0.72 244 0.72L244 0.72L244 0.72Q237.52 0.72 234.20-2.36L234.20-2.36L234.20-2.36Q230.88-5.44 230.88-10.80L230.88-10.80L230.88-10.80Q230.88-20.32 235.64-25.72L235.64-25.72L235.64-25.72Q240.40-31.12 248.56-31.12L248.56-31.12L248.56-31.12Q254.08-31.12 257.04-28.32L257.04-28.32L257.04-28.32Q260-25.52 260-20.96L260-20.96L260-20.96Q260-18.08 258.28-16.56L258.28-16.56L258.28-16.56Q256.56-15.04 254.24-15.04L254.24-15.04L254.24-15.04Q251.92-15.04 250.24-16.72" fill="#ff5b68" stroke="none" stroke-width="none" transform="translate(-225.64002132415771,18.965254225049698)" style="fill: rgb(255, 91, 104);"></path></g><g class="path" style="transform: matrix(1, 0, 0, 1, 0, 14.925); opacity: 0.05; transform-origin: 55.36px 3.76525px; animation: 1s linear 0.377143s 1 normal forwards running float-btt-in-41cf13b9-0340-45ca-930a-0d5963a36485;"><path d="M268.32-29.52L268.32-29.52L268.32-29.52Q266.40-29.52 264.32-27.28L264.32-27.28L263.12-28.24L263.12-28.24Q263.68-29.36 265.60-30.24L265.60-30.24L265.60-30.24Q267.52-31.12 269.84-31.12L269.84-31.12L269.84-31.12Q277.12-31.12 277.12-24.56L277.12-24.56L277.12-24.56Q277.12-21.76 275.68-14.56L275.68-14.56L275.68-14.56Q274.24-7.36 274.24-5.12L274.24-5.12L274.24-5.12Q274.24-1.68 277.52-1.68L277.52-1.68L277.52-1.68Q279.84-1.68 282.04-4.40L282.04-4.40L282.04-4.40Q284.24-7.12 285.84-11.92L285.84-11.92L289.20-30.40L289.20-30.40Q295.12-30.40 297.84-30.88L297.84-30.88L298.88-31.12L293.52-0.88L293.52-0.88Q295.92-1.12 297.52-3.12L297.52-3.12L298.72-2.16L298.72-2.16Q296.32 0.72 292.72 0.72L292.72 0.72L292.72 0.72Q289.12 0.72 287.12-1.04L287.12-1.04L287.12-1.04Q285.12-2.80 285.04-6L285.04-6L285.04-6Q281.68 0.72 275.12 0.72L275.12 0.72L275.12 0.72Q270.40 0.72 267.76-1.96L267.76-1.96L267.76-1.96Q265.12-4.64 265.12-9.36L265.12-9.36L265.12-9.36Q265.12-11.84 266.64-18.92L266.64-18.92L266.64-18.92Q268.16-26 268.32-29.52" fill="#ff5b68" stroke="none" stroke-width="none" transform="translate(-225.64002132415771,18.965254225049698)" style="fill: rgb(255, 91, 104);"></path></g><g class="path" style="transform: matrix(1, 0, 0, 1, 0, 14.925); opacity: 0.05; transform-origin: 89.2px -6.59475px; animation: 1s linear 0.424286s 1 normal forwards running float-btt-in-41cf13b9-0340-45ca-930a-0d5963a36485;"><path d="M317.92-2.88L317.92-2.88L317.92-2.88Q316.88-1.52 315.08-0.40L315.08-0.40L315.08-0.40Q313.28 0.72 310.40 0.72L310.40 0.72L310.40 0.72Q307.52 0.72 305.52-1.12L305.52-1.12L305.52-1.12Q303.52-2.96 303.52-6.32L303.52-6.32L303.52-6.32Q303.52-6.96 303.68-8.40L303.68-8.40L308.88-37.20L308.88-37.20Q310.32-45.12 312.84-48.48L312.84-48.48L312.84-48.48Q315.36-51.84 319.52-51.84L319.52-51.84L319.52-51.84Q322.40-51.84 324.28-49.68L324.28-49.68L324.28-49.68Q326.16-47.52 326.16-43.12L326.16-43.12L326.16-43.12Q326.16-38.72 322.76-30.56L322.76-30.56L322.76-30.56Q319.36-22.40 319.36-18.64L319.36-18.64L317.92-18.64L317.92-18.64Q317.92-22.88 321.28-30.76L321.28-30.76L321.28-30.76Q324.64-38.64 324.64-43.36L324.64-43.36L324.64-43.36Q324.64-46.24 323.32-48.32L323.32-48.32L323.32-48.32Q322-50.40 320.08-50.40L320.08-50.40L320.08-50.40Q320-48.32 317.32-31.72L317.32-31.72L317.32-31.72Q314.64-15.12 312-0.88L312-0.88L312-0.88Q314.24-0.88 316.16-3.20L316.16-3.20L316.16-3.20Q318.08-5.52 318.88-7.84L318.88-7.84L319.76-10.24L321.20-9.60L321.20-9.60Q320.96-8.48 319.96-6.36L319.96-6.36L319.96-6.36Q318.96-4.24 317.92-2.88" fill="#ff5b68" stroke="none" stroke-width="none" transform="translate(-225.64002132415771,18.965254225049698)" style="fill: rgb(255, 91, 104);"></path></g><g class="path" style="transform: matrix(1, 0, 0, 1, 0, 14.925); opacity: 0.05; transform-origin: 117.16px 3.76525px; animation: 1s linear 0.471429s 1 normal forwards running float-btt-in-41cf13b9-0340-45ca-930a-0d5963a36485;"><path d="M353.76 0.72L353.76 0.72L353.76 0.72Q346.72 0.72 346.08-5.44L346.08-5.44L346.08-5.44Q342.56 0.72 337.20 0.72L337.20 0.72L337.20 0.72Q331.84 0.72 328.68-2.52L328.68-2.52L328.68-2.52Q325.52-5.76 325.52-11.60L325.52-11.60L325.52-11.60Q325.52-20.72 330-25.92L330-25.92L330-25.92Q334.48-31.12 341.60-31.12L341.60-31.12L341.60-31.12Q347.44-31.12 349.36-25.60L349.36-25.60L349.36-25.60Q349.76-28 350.24-30.40L350.24-30.40L350.24-30.40Q356.16-30.40 359.04-30.88L359.04-30.88L360.08-31.12L354.56-0.88L354.56-0.88Q356.96-1.12 358.56-3.12L358.56-3.12L359.76-2.16L359.76-2.16Q357.36 0.72 353.76 0.72zM334.56-7.52L334.56-7.52Q334.56-3.92 335.48-2.52L335.48-2.52L335.48-2.52Q336.40-1.12 338.32-1.12L338.32-1.12L338.32-1.12Q340.24-1.12 342.24-3.20L342.24-3.20L342.24-3.20Q344.88-5.92 346.48-10.08L346.48-10.08L346.48-10.08Q346.72-11.12 347.40-15.08L347.40-15.08L347.40-15.08Q348.08-19.04 348.56-21.60L348.56-21.60L348.56-21.60Q348.32-24.64 346.88-26.88L346.88-26.88L346.88-26.88Q345.44-29.12 343.28-29.12L343.28-29.12L343.28-29.12Q339.36-29.12 336.96-22.12L336.96-22.12L336.96-22.12Q334.56-15.12 334.56-7.52L334.56-7.52" fill="#ff5b68" stroke="none" stroke-width="none" transform="translate(-225.64002132415771,18.965254225049698)" style="fill: rgb(255, 91, 104);"></path></g><g class="path" style="transform: matrix(1, 0, 0, 1, 0, 14.925); opacity: 0.05; transform-origin: 151.16px -2.15475px; animation: 1s linear 0.518571s 1 normal forwards running float-btt-in-41cf13b9-0340-45ca-930a-0d5963a36485;"><path d="M365.12-30.40L369.20-30.40L371.36-42.24L371.36-42.24Q377.28-42.24 380.16-42.72L380.16-42.72L381.20-42.96L381.20-42.96Q380.08-37.36 378.72-30.40L378.72-30.40L388.64-30.40L388.48-28.96L378.48-28.96L378.48-28.96Q374.48-8.32 374.48-4.08L374.48-4.08L374.48-4.08Q374.48-1.52 377.20-1.52L377.20-1.52L377.20-1.52Q379.92-1.52 382.16-4.96L382.16-4.96L382.16-4.96Q384.40-8.40 385.36-12.40L385.36-12.40L386.80-11.92L386.80-11.92Q383.84 0.72 374.56 0.72L374.56 0.72L374.56 0.72Q370.72 0.72 368.16-1.40L368.16-1.40L368.16-1.40Q365.60-3.52 365.60-7.32L365.60-7.32L365.60-7.32Q365.60-11.12 368.88-28.96L368.88-28.96L364.96-28.96L365.12-30.40" fill="#ff5b68" stroke="none" stroke-width="none" transform="translate(-225.64002132415771,18.965254225049698)" style="fill: rgb(255, 91, 104);"></path></g><g class="path" style="transform: matrix(1, 0, 0, 1, 0, 14.925); opacity: 0.05; transform-origin: 180.04px 3.76525px; animation: 1s linear 0.565714s 1 normal forwards running float-btt-in-41cf13b9-0340-45ca-930a-0d5963a36485;"><path d="M402.56 0.72L402.56 0.72Q396.40 0.72 393.20-2.36L393.20-2.36L393.20-2.36Q390-5.44 390-10.12L390-10.12L390-10.12Q390-14.80 390.84-18.12L390.84-18.12L390.84-18.12Q391.68-21.44 393.60-24.52L393.60-24.52L393.60-24.52Q395.52-27.60 399.40-29.36L399.40-29.36L399.40-29.36Q403.28-31.12 409.08-31.12L409.08-31.12L409.08-31.12Q414.88-31.12 418.12-28.04L418.12-28.04L418.12-28.04Q421.36-24.96 421.36-19.60L421.36-19.60L421.36-19.60Q421.36-10.48 416.52-4.88L416.52-4.88L416.52-4.88Q411.68 0.72 402.56 0.72L402.56 0.72zM399.04-7.52L399.04-7.52L399.04-7.52Q399.04-1.12 402.76-1.12L402.76-1.12L402.76-1.12Q406.48-1.12 409.40-7.56L409.40-7.56L409.40-7.56Q412.32-14 412.32-22.88L412.32-22.88L412.32-22.88Q412.32-29.60 408.68-29.60L408.68-29.60L408.68-29.60Q405.04-29.60 402.04-23.48L402.04-23.48L402.04-23.48Q399.04-17.36 399.04-7.52" fill="#ff5b68" stroke="none" stroke-width="none" transform="translate(-225.64002132415771,18.965254225049698)" style="fill: rgb(255, 91, 104);"></path></g><g class="path" style="transform: matrix(1, 0, 0, 1, 0, 14.925); opacity: 0.05; transform-origin: 214.68px 3.40525px; animation: 1s linear 0.612857s 1 normal forwards running float-btt-in-41cf13b9-0340-45ca-930a-0d5963a36485;"><path d="M426.96-27.28L425.76-28.24L425.76-28.24Q428.16-31.12 431.80-31.12L431.80-31.12L431.80-31.12Q435.44-31.12 437.44-29.28L437.44-29.28L437.44-29.28Q439.44-27.44 439.44-24.08L439.44-24.08L439.44-23.60L439.44-23.60Q443.04-31.12 448.80-31.12L448.80-31.12L448.80-31.12Q454.96-31.12 454.96-24.72L454.96-24.72L454.96-24.72Q454.96-22.08 453.20-19.12L453.20-19.12L453.20-19.12Q451.44-16.16 449.68-13.48L449.68-13.48L449.68-13.48Q447.92-10.80 447.92-8.72L447.92-8.72L446.00-8.72L446.00-8.72Q446.00-11.68 449.44-16.72L449.44-16.72L449.44-16.72Q452.88-21.76 452.88-24.52L452.88-24.52L452.88-24.52Q452.88-27.28 451.80-28.28L451.80-28.28L451.80-28.28Q450.72-29.28 448.60-29.28L448.60-29.28L448.60-29.28Q446.48-29.28 444.44-27.44L444.44-27.44L444.44-27.44Q442.40-25.60 441.04-22.80L441.04-22.80L441.04-22.80Q438.88-18.64 438.16-16L438.16-16L438.16-15.92L435.28 0L425.68 0L430.96-29.52L430.96-29.52Q428.56-29.28 426.96-27.28L426.96-27.28" fill="#ff5b68" stroke="none" stroke-width="none" transform="translate(-225.64002132415771,18.965254225049698)" style="fill: rgb(255, 91, 104);"></path></g></g>
</g>
</g>
<style id="float-btt-in-41cf13b9-0340-45ca-930a-0d5963a36485" data-anikit="">@keyframes float-btt-in-41cf13b9-0340-45ca-930a-0d5963a36485
{
  0% {
    animation-timing-function: cubic-bezier(0.2242,0.7499,0.3142,0.8148);
    transform: translate(0px,14.925px) rotate(0deg) scale(1,1) skewX(0deg) skewY(0deg);
    opacity: 0.05;
  }
  100% {
    transform: translate(0px,0px) rotate(0deg) scale(1,1) skewX(0deg) skewY(0deg);
    opacity: 1;
  }
}</style></svg>